PathFileType	4	(X/Y/Z)	C:\Users\Basilio\Documents\Thesis Gigler\squatting_fais\c3dfiles\058\SLS_front_pre5\markers_experimental.trc
DataRate	CameraRate	NumFrames	NumMarkers	Units	OrigDataRate	OrigDataStartFrame	OrigNumFrames
200.000000	200.000000	4	61	mm	200.000000	309	1236
Frame#	Time	FHD			LBHD			RBHD			C7			T10			CLAV			LSHO			LUUPA			LMUPA			LDUPA			LLEP			LMEP			LRAD			LUL			LRFIN			RSHO			RUPA1			RMUPA			RDUPA			RLEP			RMEP			RRAD			RUL			RUFIN			LASI			RASI			USACR			LSACR			RSACR			LTHI1			LTHI2			LTHI3			LTHI4			LLFC			LMFC			LTIB1			LTIB2			LTIB3			LTIB4			LLMAL			LMMAL			LHEE			LMT1			LMT2			LMT5			RTHI			RTHI2			RTHI3			RTHI4			RLFC			RMFC			RTIB1			RTIB2			RTIB3			RTIB4			RLMAL			RMMAL			RHEE			RMT1			RMT2			RMT5			
		X1	Y1	Z1	X2	Y2	Z2	X3	Y3	Z3	X4	Y4	Z4	X5	Y5	Z5	X6	Y6	Z6	X7	Y7	Z7	X8	Y8	Z8	X9	Y9	Z9	X10	Y10	Z10	X11	Y11	Z11	X12	Y12	Z12	X13	Y13	Z13	X14	Y14	Z14	X15	Y15	Z15	X16	Y16	Z16	X17	Y17	Z17	X18	Y18	Z18	X19	Y19	Z19	X20	Y20	Z20	X21	Y21	Z21	X22	Y22	Z22	X23	Y23	Z23	X24	Y24	Z24	X25	Y25	Z25	X26	Y26	Z26	X27	Y27	Z27	X28	Y28	Z28	X29	Y29	Z29	X30	Y30	Z30	X31	Y31	Z31	X32	Y32	Z32	X33	Y33	Z33	X34	Y34	Z34	X35	Y35	Z35	X36	Y36	Z36	X37	Y37	Z37	X38	Y38	Z38	X39	Y39	Z39	X40	Y40	Z40	X41	Y41	Z41	X42	Y42	Z42	X43	Y43	Z43	X44	Y44	Z44	X45	Y45	Z45	X46	Y46	Z46	X47	Y47	Z47	X48	Y48	Z48	X49	Y49	Z49	X50	Y50	Z50	X51	Y51	Z51	X52	Y52	Z52	X53	Y53	Z53	X54	Y54	Z54	X55	Y55	Z55	X56	Y56	Z56	X57	Y57	Z57	X58	Y58	Z58	X59	Y59	Z59	X60	Y60	Z60	X61	Y61	Z61	

310	1.545	-321.7118225097657	1809.512451171875	-644.3793334960939	-474.0839233398439	1748.05322265625	-718.3298950195314	-309.2702941894532	1817.173095703125	-786.0998535156252	-481.7347717285157	1598.0068359375	-738.3513793945314	-488.3735656738282	1287.657592773438	-720.2380371093751	-322.0820007324219	1555.800659179688	-717.4397583007814	-329.4794311523438	1613.135131835938	-866.966491699219	-169.6501770019532	1550.62548828125	-973.2659912109377	-146.0064697265625	1587.930297851563	-948.3716430664065	-100.470443725586	1552.789916992188	-963.7270507812502	-25.74023056030274	1557.324096679688	-945.791442871094	-21.21089363098145	1502.635375976563	-909.7874145507815	236.6046600341797	1577.5673828125	-839.2253417968752	240.9423370361329	1596.94970703125	-918.380798339844	336.9066162109376	1601.961791992188	-839.122741699219	-355.1184997558594	1612.208862304688	-568.1788940429689	-197.5910034179688	1535.372680664063	-456.4063415527345	-175.4463500976563	1574.275756835938	-479.3618164062501	-128.9635620117188	1546.79345703125	-456.3786926269532	-60.99044036865236	1541.432739257813	-463.6347656250001	-49.82729339599611	1482.038330078125	-513.6465454101564	200.3409118652344	1581.297241210938	-533.7421264648439	206.4024810791016	1593.419677734375	-461.6462402343751	298.9596252441407	1614.197265625	-529.6846313476564	-307.6053466796876	1110.817260742188	-867.804626464844	-286.6560668945313	1086.275390625	-628.8967895507814	-493.7412719726564	1162.270263671875	-716.0483398437501	-503.1621704101564	1132.364135742188	-745.4442749023439	-491.1840209960939	1127.746826171875	-689.1852416992189	-234.8882141113282	868.7901000976565	-933.1294555664065	-174.1672058105469	813.4548950195315	-918.689636230469	-137.8703765869141	831.982360839844	-887.5220947265627	-173.2727203369141	753.7041625976564	-913.1282958984377	-125.2402572631836	665.3729858398439	-897.2654418945315	-119.5138549804688	663.2365722656251	-769.5368652343752	-14.55670261383057	573.4110717773439	-851.8186035156252	-35.69762420654298	516.7659912109376	-911.297546386719	0.03397279232740403	527.5716552734376	-884.9975585937502	38.9939308166504	457.7435607910157	-857.640075683594	85.70082855224611	255.8326416015626	-871.8868408203127	93.77256011962892	280.8085632324219	-781.8981933593752	44.23651123046876	196.4971313476563	-820.5648193359377	244.9375915527344	292.8679199218751	-795.0344238281252	250.6371002197266	296.6281127929688	-841.460144042969	220.5629882812501	252.8262329101563	-894.260925292969	-377.1572570800782	865.744079589844	-576.3161621093751	-337.9501647949219	812.7439575195315	-581.2868041992189	-304.9075622558594	814.3366699218752	-584.3925781250001	-363.4420471191407	734.5682373046876	-600.7298583984376	-351.8514099121094	555.6968994140626	-633.5707397460939	-324.3050537109376	554.9913940429689	-768.769714355469	-306.4580688476563	358.2387084960938	-738.0867919921876	-338.5249938964844	275.9400939941407	-675.0458984375001	-305.2890319824219	271.8986511230469	-709.9843750000001	-318.4402465820313	230.0968627929688	-746.7853393554689	-377.4179992675782	124.5770874023438	-709.3988037109376	-352.2231750488282	143.3013916015625	-798.3648681640627	-445.2357482910157	105.5728836059571	-767.2583007812501	-237.2869873046876	56.25868988037111	-776.6539306640627	-230.5170593261719	63.26770019531251	-723.8351440429689	-281.1692199707032	38.43664932250977	-670.5734863281251	
311	1.55	-321.5461425781251	1809.62158203125	-644.1409912109376	-473.970184326172	1748.05810546875	-718.1032104492189	-309.1541748046876	1817.2431640625	-785.8854980468752	-481.6177368164064	1598.048706054688	-738.0878906250001	-488.3784790039064	1287.70263671875	-720.1635742187501	-322.4053039550782	1555.441162109375	-717.4116210937501	-329.3417358398438	1613.214111328125	-866.7339477539065	-169.5914764404297	1550.599731445313	-973.0136718750002	-145.8654022216797	1587.990234375	-948.1890258789065	-100.2784881591797	1552.840576171875	-963.4951171875002	-25.51285552978516	1557.378784179688	-945.769226074219	-21.17386436462403	1502.805786132813	-909.519226074219	236.756332397461	1577.697631835938	-838.978210449219	241.0987396240235	1597.179321289063	-918.1179199218752	337.0366210937501	1602.186279296875	-838.8148193359377	-354.9437561035157	1612.203125	-567.8913574218751	-197.5066680908204	1535.266357421875	-456.1674194335939	-175.3682098388672	1574.2119140625	-479.0989074707032	-128.8891143798828	1546.779418945313	-456.1268920898439	-60.80513000488283	1541.492553710938	-463.4932861328126	-49.47066879272462	1482.125732421875	-513.4580078125001	200.4950256347657	1581.42919921875	-533.6163940429689	206.7577667236329	1593.879028320313	-461.2081604003907	298.9890136718751	1614.442504882813	-529.5486450195314	-307.6259155273438	1110.720581054688	-867.487487792969	-286.8457031250001	1086.330322265625	-628.5675048828126	-493.9688110351564	1162.384399414063	-715.9990844726564	-503.2018127441407	1132.381713867188	-745.4179077148439	-491.2427978515626	1127.801147460938	-689.1698608398439	-234.8720855712891	868.8519287109377	-933.0047607421877	-174.1521301269532	813.3835449218752	-918.6128540039065	-137.8744354248047	831.9797363281252	-887.4724121093752	-173.2703552246094	753.7517700195314	-913.1367187500002	-125.268783569336	665.3245239257814	-897.2452392578127	-119.6876983642578	663.2221679687501	-769.5462036132815	-14.65507125854493	573.3261108398439	-851.8570556640627	-35.89112091064454	516.6254272460939	-911.3592529296877	-0.01870677620172501	527.4387817382814	-885.0689697265627	38.83436584472657	457.6076049804689	-857.7532348632815	85.30509185791017	255.5305480957032	-872.1031494140627	93.48952484130861	280.6085815429688	-782.0752563476565	43.51770782470704	196.4615020751954	-820.806823730469	244.3743438720704	292.1245727539063	-795.0817871093752	250.3305206298829	295.8296508789063	-841.4056396484377	220.0144653320313	252.240219116211	-894.3433837890627	-377.2953491210938	865.7199707031252	-576.2628173828126	-338.1024475097657	812.6987915039065	-581.1291503906251	-305.1446838378907	814.1237792968752	-584.1245727539064	-363.4623107910157	734.4654541015626	-600.6230468750001	-351.7916259765626	555.6345825195314	-633.4433593750001	-323.9202880859376	554.9810180664064	-768.605163574219	-306.3241271972657	358.2174682617188	-737.8823242187501	-338.5415039062501	275.9463500976563	-674.9877929687501	-305.2395629882813	271.9042358398438	-709.9167480468751	-318.2911987304688	230.0907135009766	-746.6587524414064	-377.4249267578126	124.5912628173828	-709.3423461914064	-352.2141418457032	143.3402709960938	-798.267028808594	-445.2373962402345	105.58642578125	-767.2658081054689	-237.2639465332032	56.27818679809572	-776.5986938476565	-230.5087585449219	63.23366165161134	-723.7644653320314	-281.1763610839844	38.44841384887696	-670.5533447265626	
312	1.555	-321.3845214843751	1809.808837890625	-643.8267822265626	-473.851287841797	1748.137939453125	-717.8714599609376	-309.0898742675782	1817.2138671875	-785.6987915039065	-481.5997009277345	1597.924438476563	-737.8626098632814	-488.3638000488282	1287.749755859375	-720.0599365234376	-322.2226257324219	1555.451171875	-717.1708374023439	-329.2395935058594	1613.25244140625	-866.4450683593752	-169.5104217529297	1550.638549804688	-972.7312622070315	-145.8460388183594	1587.994873046875	-947.9733886718752	-100.1750106811524	1552.909790039063	-963.3531494140627	-25.4967384338379	1557.433837890625	-945.540710449219	-21.13689422607422	1502.879150390625	-909.319274902344	236.8206634521485	1577.948364257813	-838.7805175781252	241.1880035400391	1597.41650390625	-917.891296386719	337.1113586425782	1602.466186523438	-838.5332031250002	-354.8817138671876	1612.191528320313	-567.6733398437501	-197.4031219482422	1535.256591796875	-455.8941345214845	-175.297348022461	1574.098388671875	-478.8535766601564	-128.7401733398438	1546.8349609375	-455.8148803710939	-60.63921356201173	1541.430786132813	-463.3718872070314	-49.27468490600587	1482.16650390625	-513.3255004882814	200.6426239013672	1581.566162109375	-533.4840698242189	206.828353881836	1593.975463867188	-460.9895629882814	299.0708618164063	1614.691284179688	-529.2997436523439	-307.4870605468751	1110.774658203125	-867.3063964843752	-287.1543273925782	1086.140014648438	-628.1409301757814	-494.2057189941407	1162.475463867188	-715.8546142578126	-503.2086486816407	1132.425659179688	-745.3861694335939	-491.3149414062501	1127.829467773438	-689.1280517578126	-234.9511108398438	868.880554199219	-932.9024047851565	-174.246566772461	813.4710693359377	-918.530456542969	-137.8470764160157	831.9644165039065	-887.4033203125002	-173.2622833251953	753.7920532226564	-913.0773925781252	-125.3612823486328	665.2745361328126	-897.2630004882815	-119.7138290405274	663.1615600585939	-769.6016845703127	-14.96023845672608	573.0623779296876	-851.786560058594	-36.09450912475587	516.5770263671876	-911.3834228515627	-0.07395641505718233	527.3803100585939	-885.1714477539065	38.67777252197266	457.430145263672	-857.8061523437502	84.97283172607423	255.4052734375001	-872.2725830078127	93.16104888916017	280.4303283691407	-782.309509277344	43.21893310546876	196.3539428710938	-821.1551513671877	243.8712005615235	291.4193725585938	-795.1801757812502	249.6364135742188	295.4660034179688	-841.325378417969	219.6218872070313	251.7727355957032	-894.4616699218752	-377.6055297851563	865.613464355469	-576.1179809570314	-338.3460083007813	812.735778808594	-580.9088745117189	-305.4900207519532	814.0761718750002	-583.8161621093751	-363.5086059570313	734.5254516601564	-600.5527343750001	-351.7968444824219	555.5900878906251	-633.3672485351564	-323.6650085449219	554.9754638671876	-768.4529418945315	-306.2187500000001	358.2352600097657	-737.8094482421876	-338.5358886718751	275.9258728027344	-674.9064331054689	-305.2065124511719	271.8713378906251	-709.7712402343751	-318.3105468750001	230.0369567871094	-746.5673217773439	-377.4732360839844	124.6206588745117	-709.3398437500001	-352.0548095703126	143.3969879150391	-798.1787109375002	-445.2337646484376	105.6140975952149	-767.3167114257814	-237.1540069580079	56.29703903198244	-776.449645996094	-230.5335540771485	63.22465133666994	-723.7036743164064	-281.2339172363282	38.22894287109376	-670.4993286132814	
313	1.56	-321.0865173339844	1809.93505859375	-643.7280273437501	-473.7875976562501	1748.018432617188	-717.6783447265626	-308.9738159179688	1817.265502929688	-785.5192871093752	-481.5072021484376	1597.965087890625	-737.6606445312501	-488.4837951660157	1287.73388671875	-719.8969116210939	-322.0359191894532	1555.409301757813	-716.9269409179689	-329.1967468261719	1613.255493164063	-866.2620239257815	-169.5292205810547	1550.720825195313	-972.465759277344	-145.655014038086	1588.042114257813	-947.786315917969	-100.0659408569336	1552.970947265625	-963.1275634765627	-25.38109970092774	1557.528930664063	-945.3570556640627	-21.04199600219727	1502.939697265625	-909.217712402344	236.8863372802735	1578.0498046875	-838.573181152344	241.220932006836	1597.581665039063	-917.729919433594	338.2654418945313	1603.00537109375	-837.7362060546877	-354.8182983398438	1612.166625976563	-567.4265136718751	-197.1417236328126	1535.339965820313	-455.6354370117189	-175.2230529785157	1573.978759765625	-478.6798400878907	-128.6246337890625	1546.81201171875	-455.5650634765626	-60.45522689819337	1541.568603515625	-463.1636352539064	-49.26771545410158	1482.040283203125	-513.0964965820314	200.0884399414063	1581.715087890625	-532.8245239257814	206.8837432861329	1594.094604492188	-460.7618408203126	299.1867370605469	1614.887451171875	-529.1707763671876	-307.3771057128907	1110.873046875	-867.0291137695315	-287.3792419433594	1086.137084960938	-627.8613281250001	-494.2555541992189	1162.453002929688	-715.7659301757814	-503.2366333007814	1132.464599609375	-745.3259277343751	-491.3925781250001	1127.87109375	-689.0747680664064	-235.0117797851563	868.9001464843752	-932.7910156250002	-174.230697631836	813.5061645507815	-918.473327636719	-137.8501129150391	831.963806152344	-887.3940429687502	-173.2611541748047	753.7471313476564	-913.0672607421877	-125.4757537841797	665.2560424804689	-897.3052978515627	-119.8238525390625	663.1788330078126	-769.6501464843752	-15.25076866149903	573.0028076171876	-851.781188964844	-36.20016860961915	516.5839843750001	-911.441833496094	-0.5266306996345521	527.1517944335939	-885.128112792969	38.57428359985352	457.3232727050782	-857.8253173828127	84.59229278564455	255.3591308593751	-872.4653320312502	92.88350677490236	280.1916198730469	-782.4904785156252	42.89577865600587	196.2783813476563	-821.4710083007815	243.6313934326172	290.7940063476563	-795.2960205078127	249.386459350586	294.9421997070313	-841.3341064453127	219.2668914794922	251.4539337158204	-894.5792236328127	-377.8739929199219	865.612487792969	-576.0197143554689	-338.6211853027344	812.5427856445315	-580.7525634765626	-305.7017822265626	814.1235961914065	-583.5283203125001	-363.5930786132813	734.4064941406251	-600.4367675781251	-351.7817687988282	555.5650634765626	-633.3224487304689	-323.3805847167969	555.0126342773439	-768.2962646484377	-306.0881958007813	358.2466430664063	-737.6004638671876	-338.5722045898438	275.9279785156251	-674.9001464843751	-305.1781005859376	271.8582763671876	-709.6394653320314	-318.2676391601563	229.9925689697266	-746.4261474609376	-377.4802551269532	124.6502532958985	-709.3251953125001	-351.5981445312501	143.2069549560547	-797.9366455078127	-445.2119140625001	105.5766143798828	-767.3387451171876	-237.1583557128907	56.30721664428712	-776.5083618164065	-230.5175170898438	63.19050598144533	-723.6853637695314	-281.2365722656251	38.15932846069337	-670.4969482421876	
